<svg id="Layer_1" data-name="Layer 1" xmlns="http://www.w3.org/2000/svg" viewBox="0 0 248.87 248.72"><defs><style>.cls-1{fill:#4374ba;}.cls-2{fill:#e76224;}.cls-3{fill:#010101;}</style></defs><title>favicon</title><path class="cls-1" d="M165.45,161.53c0,1.6,1.3,2.49,2.07,3.66.87,1.34,2,2.54,2.77,3.91,2.26,3.79,1.89,7.22-1,10.05-3,3-6.59,3.35-10.46.84-1.6-1-3-2.37-4.58-3.47-1.39-1-2.61-2.29-5-2.63a15.64,15.64,0,0,0,2.31,3.26,37.25,37.25,0,0,1,3.06,4.29c1.73,3.26,1.08,6.51-1.59,9.19s-5.89,3.32-9.19,1.68a28.14,28.14,0,0,1-3.6-2.35,18.8,18.8,0,0,0-4.37-2.78c-1,.94-.1,1.55.19,2.12a14.36,14.36,0,0,1,1.82,5.91,7.48,7.48,0,0,1-8.48,8,9.85,9.85,0,0,1-9-8.53,47.06,47.06,0,0,0-2.2-8.33,16.65,16.65,0,0,0-3.56-6.19c-2.36-2.61-4.66-5.28-7.09-7.81q-14.94-15.6-29.95-31.12c-8.91-9.22-21.71-9.15-30.57.15a60.89,60.89,0,0,0-4,4.75,3.3,3.3,0,0,1-4.11,1.26c-9-2.64-18.09-5.31-26.87-8.79-2.22-.89-4.48-1.69-6.72-2.55a2.9,2.9,0,0,1-2-2.48C3,131.09,2.5,128.57,2.29,126A91.37,91.37,0,0,1,8,86.48C20.66,51.86,50.84,21.67,85.52,9.39a120.47,120.47,0,0,1,51.92-6.55c30.84,2.89,57.17,15.25,78.86,37.37A104,104,0,0,1,235.76,68c.56,1.15,1.1,2.31,1.57,3.5a1.21,1.21,0,0,1-.94,1.78c-.77.21-1.53.49-2.3.67Q227.57,75.51,221,77c-4.06.94-3.58,1.65-6.13-2.29a135,135,0,0,0-10.61-14.22c-8.92-10.44-19.22-19.2-31.49-25.5a94,94,0,0,0-37.67-10.2c-14.36-.88-28.44.51-42.08,5.17C73.44,36.7,57.25,48.2,45,65a70.62,70.62,0,0,0-7.66,13.27c-.66,1.51-.49,2,1,2.54,5.27,1.86,10.54,3.76,15.86,5.46a15.93,15.93,0,0,0,11.27-.55c2.35-1,4.66-2.11,6.9-3.33A231.57,231.57,0,0,1,93.8,71.66a28.46,28.46,0,0,1,13.06-2.47,19.62,19.62,0,0,1,13,6.25c-.66,1.18-1.89,1.65-2.94,2.31q-9.36,5.84-18.74,11.64c-.95.59-1.9,1.18-2.84,1.8-11.27,7.39-9.58,22.55-2.25,29.19,5.48,5,11.74,6.27,18.68,3.93a128.78,128.78,0,0,0,17.09-7.55,34.93,34.93,0,0,1,6.19-2.56,13.06,13.06,0,0,1,10.57,1.62,21.58,21.58,0,0,1,4.42,3.67q15.52,15.69,31.06,31.37a26.52,26.52,0,0,1,3.69,4.38c2.74,4.37,1.18,9.42-3.44,11.73a6.84,6.84,0,0,1-7.26-.52c-1.73-1.16-3.39-2.41-5.13-3.55-1-.68-2-1.71-3.4-1.51-.53-.36.3,0-.29-.2C165.18,161.15,165.23,161.26,165.45,161.53Z" transform="translate(-1.99 -2.31)"/><path class="cls-2" d="M123.66,251a116.44,116.44,0,0,1-46.54-9.7c-30.5-13.68-52.63-35.76-65.71-66.66a82.49,82.49,0,0,1-5.69-20.76c-.26-1.85.28-2.3,2.13-1.74,2.6.8,5.19,1.63,7.77,2.47A33.08,33.08,0,0,1,33.23,168a79.71,79.71,0,0,1,4.12,7c15.78,29.45,40.15,47.21,73,52.78,50.84,8.61,101.89-24.09,115.08-75.06,0-.16.11-.31.14-.46,1.56-8.3,2.24-7.41-5.7-6.94A115.85,115.85,0,0,0,208,146.64a20.38,20.38,0,0,1-18.8-6.06q-16.62-16.64-33.4-33.11c-1.36-1.34-2.81-2.61-4.24-3.89a10.23,10.23,0,0,0-11.58-1.9c-1.91.81-3.84,1.6-5.69,2.53-4,2-8,4.13-12,6.13q-4.72,2.37-9.53,4.54a16.84,16.84,0,0,1-7.45,1.55c-4.43-.13-7.78-2.14-9.41-6.22s-.74-7.87,2.39-11a32.65,32.65,0,0,1,7-5c4.57-2.65,9.18-5.22,13.77-7.82,8.63-4.88,17.27-9.74,25.88-14.65,8.25-4.71,13.87-4.25,21,1.94,5.2,4.5,10.68,8.65,15.66,13.43s11.07,5.3,17.49,3.82c6.7-1.54,13.37-3.18,20.07-4.75,5.91-1.38,11.84-2.71,17.76-4.05a20.93,20.93,0,0,1,2.37-.4,1.94,1.94,0,0,1,2,1c.76,1.4,1.56,2.79,2.24,4.23a73.1,73.1,0,0,1,6.22,22.57,128.31,128.31,0,0,1-9,66.27c-10.25,24.58-27.34,43.42-49.86,57.34C171.31,245.3,149.77,251.09,123.66,251Z" transform="translate(-1.99 -2.31)"/><path class="cls-2" d="M96.29,206.84c-1.12-.07-1.92-.08-2.71-.19-3.94-.54-6-2.49-6.55-6.47a44,44,0,0,1-.22-5.27,1.67,1.67,0,0,0-1.64-1.9c-1.75-.19-3.5-.37-5.23-.69-4.23-.77-5.45-2.17-5.86-6.29-.17-1.7.71-3.83-.78-5-1.15-.91-3-.94-4.51-1.37-.93-.26-1.85-.52-2.76-.82A5.93,5.93,0,0,1,61.91,174c-.3-1.57-.54-3.15-.8-4.72a2.16,2.16,0,0,0-1.89-1.86c-1.88-.39-3.76-.75-5.6-1.28-3.15-.91-4.62-3.2-4.94-6.37-.66-6.71,4.61-14.42,11.1-16.2a8.84,8.84,0,0,1,10.11,3.59A23.33,23.33,0,0,1,73,153.6a2.85,2.85,0,0,0,2.26,2.19,17.62,17.62,0,0,1,2.28.71c4.65,1.6,7.6,4.69,8.06,9.7.17,1.76.82,2.6,2.54,2.84a14.36,14.36,0,0,1,2.75.8c4.12,1.5,6.82,4.38,7.17,8.75.2,2.56,1.33,3.58,3.49,4.37a22.76,22.76,0,0,1,5.06,2.69c4.93,3.4,6,8.77,2.65,13.81A16,16,0,0,1,96.29,206.84Z" transform="translate(-1.99 -2.31)"/><path class="cls-3" d="M165.45,161.53c-.39.09-.81-.2-.65-.44.43-.64.71-.31.79.3Z" transform="translate(-1.99 -2.31)"/></svg>